<svg xmlns="http://www.w3.org/2000/svg" xmlns:xlink="http://www.w3.org/1999/xlink" width="1024" zoomAndPan="magnify" viewBox="0 0 768 767.999994" height="1024" preserveAspectRatio="xMidYMid meet" version="1.0"><defs><clipPath id="f0d2195c12"><path d="M 60.589844 178.695312 L 659.839844 178.695312 L 659.839844 588.945312 L 60.589844 588.945312 Z M 60.589844 178.695312 " clip-rule="nonzero"/></clipPath></defs><rect x="-76.8" width="921.6" fill="#ffffff" y="-76.799999" height="921.599993" fill-opacity="1"/><rect x="-76.8" width="921.6" fill="#131111" y="-76.799999" height="921.599993" fill-opacity="1"/><g clip-path="url(#f0d2195c12)"><rect x="-76.8" width="921.6" fill="#131111" y="-76.799999" height="921.599993" fill-opacity="1"/></g><path fill="#ffffff" d="M 303.539062 245.234375 C 306.71875 251.488281 311.164062 256.996094 314.929688 262.84375 C 324.050781 277.015625 336.550781 292.554688 344.8125 307 C 326.882812 331.964844 308.105469 356.746094 289.953125 381.660156 C 307.71875 381.574219 325.484375 381.667969 343.246094 381.9375 L 428.453125 496.4375 C 440.972656 513.273438 460.109375 537.3125 471.054688 554.230469 L 71.464844 554.078125 C 76.324219 545.289062 94.550781 522.375 101.589844 513.121094 L 150.519531 447.597656 C 188.960938 395.96875 227.179688 344.0625 266.015625 292.734375 C 271.082031 286.035156 275.925781 278.414062 281.332031 272.09375 C 284.679688 269.921875 299.003906 250.355469 303.539062 245.234375 Z M 303.539062 245.234375 " fill-opacity="1" fill-rule="nonzero"/><path fill="#131111" d="M 242.230469 444.023438 L 306.148438 444.070312 C 316.726562 457.464844 326.96875 471.121094 336.867188 485.023438 C 327.042969 485.507812 315.398438 485.28125 305.441406 485.332031 L 210.316406 485.234375 C 220.832031 471.398438 231.46875 457.664062 242.230469 444.023438 Z M 242.230469 444.023438 " fill-opacity="1" fill-rule="nonzero"/><path fill="#ff0000" d="M 281.332031 272.09375 C 286.527344 262.566406 298.273438 247.878906 305.164062 238.566406 L 343.214844 186.738281 C 365.863281 218.765625 390.308594 248.796875 413.371094 280.027344 C 431.46875 304.839844 449.902344 329.402344 468.671875 353.707031 C 475.425781 362.570312 486.199219 377.683594 493.007812 385.695312 C 528.125 340.484375 562.832031 292.914062 597.457031 247.015625 L 625.296875 210.550781 C 631.375 202.5625 637.066406 194.335938 643.59375 186.707031 L 643.601562 554.242188 L 572.523438 554.109375 L 572.382812 451.902344 C 572.371094 434.050781 572.820312 412.898438 571.964844 395.183594 C 549.820312 426.117188 525.207031 455.953125 502.855469 486.84375 C 499.566406 491.382812 495.921875 496.21875 492.132812 500.34375 C 459.0625 455.902344 425.667969 411.703125 391.953125 367.746094 L 366.28125 334 C 359.738281 325.3125 352.207031 314.863281 344.8125 307 C 336.550781 292.554688 324.050781 277.015625 314.929688 262.84375 C 311.164062 256.996094 306.71875 251.488281 303.539062 245.234375 C 299.003906 250.355469 284.679688 269.921875 281.332031 272.09375 Z M 281.332031 272.09375 " fill-opacity="1" fill-rule="nonzero"/></svg>