<svg xmlns="http://www.w3.org/2000/svg" xmlns:xlink="http://www.w3.org/1999/xlink" width="1024" zoomAndPan="magnify" viewBox="0 0 768 767.999994" height="1024" preserveAspectRatio="xMidYMid meet" version="1.0"><rect x="-76.8" width="921.6" fill="#ffffff" y="-76.799999" height="921.599993" fill-opacity="1"/><rect x="-76.8" width="921.6" fill="#ffffff" y="-76.799999" height="921.599993" fill-opacity="1"/><rect x="-76.8" width="921.6" fill="#1a1818" y="-76.799999" height="921.599993" fill-opacity="1"/><path fill="#ffffff" d="M 100.132812 215.992188 C 101.558594 215.949219 103.019531 216.066406 104.441406 216.117188 C 180.988281 218.988281 248.484375 255.125 299.765625 311.613281 C 275.21875 311.722656 245.824219 312.832031 221.304688 314.398438 C 236.160156 318.960938 252.96875 321.671875 267.546875 326.566406 C 211.84375 338.167969 165.796875 364.5625 126.851562 405.5625 C 131.871094 382.046875 147.25 356.292969 161.929688 337.515625 C 166.0625 332.230469 170.738281 327.21875 174.980469 321.941406 C 168.550781 323.988281 162.1875 326.242188 155.90625 328.710938 C 115.375 345.644531 87.753906 366.070312 59.917969 400.210938 C 64.8125 363.578125 82.246094 333.34375 105.265625 305.136719 C 92.226562 278.292969 79.195312 254.027344 56.613281 233.863281 C 49.855469 227.832031 42.664062 222.496094 35.480469 216.984375 L 36.164062 217.011719 C 66.5 218.367188 111.515625 239.949219 134.824219 259.003906 C 144.433594 266.863281 153.03125 275.652344 161.355469 284.84375 C 164.632812 284.125 168.144531 283.527344 171.457031 282.902344 C 157.714844 261.527344 139.699219 243.808594 119.242188 228.859375 C 113.078125 224.355469 106.140625 220.539062 100.132812 215.992188 Z M 100.132812 215.992188 " fill-opacity="1" fill-rule="nonzero"/><path fill="#1a1818" d="M 208.417969 261.308594 C 209.988281 262.070312 215.6875 266.824219 217.355469 268.125 C 220.632812 270.632812 223.996094 273.027344 227.445312 275.296875 C 231.449219 277.925781 235.238281 280.207031 239.492188 282.421875 C 241.546875 283.496094 245.171875 284.703125 246.730469 285.824219 L 246.632812 286.476562 L 245.066406 287.539062 C 241.707031 288.984375 239.621094 289.3125 236.035156 289.863281 C 228.671875 285.277344 214.011719 268.097656 208.417969 261.308594 Z M 208.417969 261.308594 " fill-opacity="1" fill-rule="nonzero"/><path fill="#ffffff" d="M 121.449219 358.546875 C 121.808594 359.492188 117.980469 367.601562 117.441406 369.246094 C 99.101562 424.785156 126.4375 462.410156 177.550781 480.957031 C 178.128906 480.003906 178.714844 479.050781 179.304688 478.101562 C 192.722656 456.558594 213.738281 440.941406 237.378906 432.007812 C 243.816406 429.578125 251.273438 427.863281 257.972656 426.308594 C 252.625 432.78125 247.183594 440.230469 241.882812 446.886719 C 230.265625 461.472656 218.898438 476.015625 207.914062 491.070312 C 208.4375 493.992188 209.339844 497.511719 210.007812 500.445312 C 214.84375 520.417969 220.449219 540.023438 225.320312 559.902344 C 219.878906 556.289062 215.355469 553.867188 210.183594 549.628906 C 190.820312 533.765625 180.855469 515.417969 174.933594 491.726562 C 168.347656 490.472656 163.433594 490.09375 156.613281 488.363281 C 137.359375 483.320312 119.804688 473.222656 105.761719 459.117188 C 88.296875 441.28125 81.078125 419.175781 81.320312 394.542969 C 89.957031 382.410156 108.550781 365.753906 121.449219 358.546875 Z M 121.449219 358.546875 " fill-opacity="1" fill-rule="nonzero"/><path fill="#ffffff" d="M 434.503906 261.261719 L 434.839844 261.609375 C 435.15625 263.667969 434.242188 278.210938 434.121094 281.074219 C 433.679688 293.148438 433.316406 305.226562 433.03125 317.308594 C 438.472656 310.140625 450.773438 299.347656 460.5625 302.289062 C 486.152344 309.984375 475.332031 341.972656 479.011719 361.402344 C 480.132812 367.34375 481.578125 370.96875 484.859375 376.042969 C 475.605469 377.007812 458.503906 376.507812 448.472656 376.632812 C 450.113281 373.121094 453.011719 366.601562 453.625 362.882812 C 455.105469 353.90625 455.484375 331.679688 453.671875 323.089844 C 453.625 322.941406 453.589844 322.792969 453.535156 322.648438 C 452.6875 320.351562 451.164062 318.625 448.902344 317.664062 C 445.949219 316.410156 442.273438 315.828125 439.246094 317.148438 C 436.609375 318.296875 434.835938 320.980469 433.917969 323.617188 C 431.984375 329.179688 432.367188 355.738281 433.675781 361.871094 C 434.800781 367.140625 436.914062 371.859375 439.308594 376.644531 L 403.207031 376.6875 C 409.28125 363.367188 409.089844 361.269531 409.296875 346.988281 C 409.417969 338.898438 409.464844 330.808594 409.4375 322.722656 C 409.40625 314.796875 409.59375 305.621094 408.90625 297.75 C 408.382812 291.738281 403.527344 287.511719 398.996094 284.09375 C 417.289062 282.800781 424.875 275.589844 434.503906 261.261719 Z M 434.503906 261.261719 " fill-opacity="1" fill-rule="nonzero"/><path fill="#ffffff" d="M 353.660156 269.773438 C 369.84375 268.660156 384.421875 273.515625 398.714844 280.78125 C 394.382812 289.046875 388.539062 297.023438 384.078125 305.921875 C 378.707031 294.53125 368.492188 274.753906 354.832031 273.027344 C 343.101562 271.546875 336.429688 288.53125 344.53125 296.964844 C 358.773438 311.789062 381.4375 315.792969 395.378906 331.121094 C 405.570312 342.324219 402.523438 359.710938 390.910156 368.625 C 378.753906 378.195312 366.511719 378.855469 351.746094 377.519531 C 337.3125 375.324219 323.550781 369.925781 311.480469 361.714844 C 316.886719 354.019531 321.796875 346.15625 327.421875 338.421875 C 335.800781 353.121094 347.230469 376.3125 367.003906 374.195312 C 371.652344 373.695312 378.265625 370.914062 381.140625 367.125 C 390.28125 355.074219 373.414062 346.847656 365.054688 341.691406 C 353.484375 334.953125 342.992188 329.867188 332.339844 321.5625 C 318.921875 311.101562 317.136719 295.597656 327.207031 282.078125 C 333.382812 274.066406 343.675781 270.804688 353.660156 269.773438 Z M 353.660156 269.773438 " fill-opacity="1" fill-rule="nonzero"/><path fill="#ffffff" d="M 660.066406 258.613281 C 660.53125 259.960938 660.324219 261.957031 660.25 263.390625 C 658.808594 290.609375 658.867188 317.851562 658.695312 345.105469 C 663.894531 339.929688 669.554688 335.191406 674.699219 329.835938 C 685.246094 318.851562 679.03125 311.558594 669.941406 303.058594 C 681.789062 302.8125 697.675781 303.589844 709.003906 302.632812 C 698.109375 310.535156 691.382812 316.035156 681.359375 325.164062 C 686.976562 334.078125 691.84375 343.054688 697.046875 352.1875 C 701.519531 360.035156 706.949219 371.039062 714.386719 376.207031 L 714.46875 376.277344 L 714.402344 376.59375 C 701.597656 376.695312 688.769531 376.4375 675.96875 376.675781 C 678.628906 363.523438 671.527344 354.300781 665.355469 342.640625 C 663.171875 344.457031 661 346.289062 658.847656 348.140625 C 658.71875 362.347656 658.59375 363.871094 665.277344 376.574219 L 628.9375 376.675781 C 631.238281 371.808594 633.785156 366.984375 634.695312 361.617188 C 636.09375 353.386719 636.480469 300 634.761719 292.921875 C 633.542969 287.894531 630.40625 283.503906 627.445312 279.363281 C 642.925781 272.316406 650.632812 274.117188 660.066406 258.613281 Z M 660.066406 258.613281 " fill-opacity="1" fill-rule="nonzero"/><path fill="#ffffff" d="M 523.046875 300.734375 C 532.828125 300.964844 541.574219 303.75 547.144531 312.351562 C 551.71875 319.421875 551.652344 328.257812 551.632812 336.375 L 551.570312 352.109375 C 551.542969 360.097656 550.582031 369.523438 561.460938 363.898438 C 558.929688 365.984375 556.054688 368.679688 553.699219 371.03125 C 549.199219 375.527344 544.566406 379.414062 537.683594 377.359375 C 532.613281 375.84375 530.4375 371.371094 528.097656 367.011719 C 525.027344 369.464844 520.320312 373.839844 517.230469 375.625 C 514.539062 379.980469 498.039062 382.484375 496.378906 376.253906 C 493.230469 374.105469 488.535156 371.277344 487.582031 367.203125 C 481.855469 342.71875 509.859375 334.953125 527.644531 329.691406 C 527.738281 317.78125 525.785156 312.117188 523.046875 300.734375 Z M 523.046875 300.734375 " fill-opacity="1" fill-rule="nonzero"/><path fill="#1a1818" d="M 496.378906 376.253906 C 503.847656 379.160156 509.859375 378.253906 517.230469 375.625 C 514.539062 379.980469 498.039062 382.484375 496.378906 376.253906 Z M 496.378906 376.253906 " fill-opacity="1" fill-rule="nonzero"/><path fill="#1a1818" d="M 527.453125 334.882812 C 528.257812 336.136719 528.015625 360.78125 528.023438 364.339844 C 521.746094 365.085938 518.382812 365.1875 513.085938 361.273438 C 500.757812 348.113281 516.679688 339.632812 527.453125 334.882812 Z M 527.453125 334.882812 " fill-opacity="1" fill-rule="nonzero"/><path fill="#ffffff" d="M 562.210938 314.542969 C 579.082031 310.722656 588.175781 306.335938 596.617188 290.304688 C 596.65625 298.539062 595.148438 318.796875 594.261719 327.253906 C 603.429688 311.835938 611.125 301.933594 630.800781 304.855469 C 627.9375 314.191406 625.851562 324.375 622.890625 333.351562 C 592.808594 305.488281 588.925781 352.703125 597.804688 370.996094 C 598.820312 373.089844 599.898438 374.695312 601.207031 376.613281 C 593.785156 380.441406 584.117188 379.042969 575.925781 378.875 C 572.960938 378.8125 566.796875 378.546875 564.976562 376.488281 L 564.300781 376.0625 C 565.910156 372.722656 568.132812 369.773438 569.050781 366.132812 C 571.175781 357.746094 572.847656 328.5 568.738281 321.558594 C 567.109375 318.804688 564.628906 316.59375 562.210938 314.542969 Z M 562.210938 314.542969 " fill-opacity="1" fill-rule="nonzero"/><path fill="#1a1818" d="M 564.976562 376.488281 C 577.332031 377.226562 589.039062 376.265625 601.207031 376.613281 C 593.785156 380.441406 584.117188 379.042969 575.925781 378.875 C 572.960938 378.8125 566.796875 378.546875 564.976562 376.488281 Z M 564.976562 376.488281 " fill-opacity="1" fill-rule="nonzero"/><path fill="#ffffff" d="M 512.660156 301.550781 C 513.972656 301.445312 514.027344 301.195312 514.804688 301.796875 C 514.070312 303.691406 508.765625 312.933594 507.472656 315.226562 C 503.746094 321.839844 499.4375 331.28125 495.273438 337.304688 L 494.886719 336.742188 C 493.300781 329.128906 492.1875 320.203125 490.777344 312.363281 C 498.363281 307.3125 503.765625 304.074219 512.660156 301.550781 Z M 512.660156 301.550781 " fill-opacity="1" fill-rule="nonzero"/></svg>